<svg xmlns="http://www.w3.org/2000/svg" xmlns:xlink="http://www.w3.org/1999/xlink" width="164" height="139" data-bbox="0 0 164.002 138.406" data-type="ugc" viewBox="0 0 164 139"><g><defs><linearGradient id="9c67742b-ceea-43bb-a0f2-349eb6dae8cf" x1="50%" x2="50%" y1="-.001%" y2="100.001%"><stop offset="0%" stop-color="#262262"/><stop offset="100%" stop-color="#7F2564"/></linearGradient><linearGradient id="f0180259-85eb-4057-a725-d780503061ba" x1="50%" x2="50%" y1="100%" y2="-.001%"><stop offset="0%" stop-color="#262262"/><stop offset="100%" stop-color="#9E1F62"/></linearGradient><path id="0678ebc1-51af-4f6e-9929-2c6ff4d5b279" d="M117.11.025c-.717.085-1.182.465-1.392 1.14-.085.169-.127.36-.127.57v.253c0 .633.274 1.119.824 1.456.549.339 1.118.339 1.71 0 .548-.337.822-.823.822-1.456v-.253c0-.507-.19-.949-.57-1.33-.303-.27-.635-.405-.993-.405-.09 0-.181.008-.274.025M65.314.279c-.591.379-.885.907-.885 1.582v4.37h-1.014c-.676 0-1.162.296-1.457.886-.337.507-.337 1.056 0 1.647.295.591.781.864 1.457.822h1.014v6.586c0 1.436.379 2.596 1.139 3.483.929 1.14 2.321 1.646 4.179 1.519l1.203-.19c.634-.168 1.034-.569 1.204-1.203.169-.675.042-1.223-.38-1.646-.507-.507-1.097-.653-1.773-.443-.507.168-.93.19-1.267.063-.296-.042-.506-.147-.633-.316-.212-.211-.316-.633-.316-1.267V9.586h2.089c.676.042 1.182-.231 1.519-.822.338-.591.338-1.14 0-1.647-.337-.59-.843-.886-1.519-.886h-2.089v-4.37a1.445 1.445 0 0 0-.444-1.203c-.338-.337-.759-.506-1.266-.506-.254 0-.507.042-.761.127m15.831 6.775c-1.774 1.224-2.744 3.272-2.913 6.142v.697c.127 2.743 1.097 4.792 2.913 6.142 1.055.718 2.11 1.076 3.166 1.076 1.52.043 2.575 0 3.166-.127a6.297 6.297 0 0 0 2.28-1.076c.506-.38.716-.886.633-1.519-.084-.676-.423-1.141-1.014-1.394-.633-.21-1.203-.105-1.71.317-.379.252-1.309.38-2.786.38h-.569c-1.393-.21-2.238-1.035-2.533-2.47h6.902c.759 0 1.287-.338 1.583-1.013.083-.21.127-.422.127-.633v-.634c0-2.954-1.014-5.065-3.04-6.332a5.874 5.874 0 0 0-2.659-.632c-1.267 0-2.449.358-3.546 1.076m1.899 2.723c.422-.254.845-.38 1.267-.38h.38c.379 0 .717.084 1.013.253.676.338 1.097 1.034 1.266 2.089v.127h-5.192c.168-.928.59-1.625 1.266-2.089M44.988 8.004a3.953 3.953 0 0 0-.823 2.469c-.084 1.435.401 2.596 1.456 3.483.971.928 2.512 1.35 4.623 1.266.97 0 1.646.211 2.027.633.168.339.168.655 0 .951-.254.506-.739.78-1.457.822-1.816.296-3.083-.02-3.799-.949a.74.74 0 0 0-.191-.127c-.548-.464-1.16-.485-1.836-.063-.717.422-.992.993-.823 1.709.253.93 1.077 1.731 2.47 2.407 1.73.716 3.714.716 5.952 0a5.38 5.38 0 0 0 1.457-.761c1.139-.885 1.687-2.004 1.646-3.355.041-.887-.212-1.71-.761-2.47-.844-1.224-1.942-1.9-3.292-2.027-.338-.084-.845-.126-1.52-.126-1.14.042-1.963-.105-2.469-.443-.211-.38-.253-.739-.127-1.077.254-.633.739-.991 1.456-1.076.042-.042.106-.063.191-.063 1.308-.169 2.258.19 2.849 1.076.422.464.949.612 1.583.443.717-.21 1.118-.633 1.202-1.267.212-1.013-.4-1.92-1.836-2.722-.886-.464-1.941-.697-3.166-.697h-.127l-.19-.002c-2.054 0-3.554.656-4.495 1.966m110.083-.634c-1.012-.885-2.237-1.33-3.672-1.33a6 6 0 0 0-1.774.254c-2.195.676-3.377 2.322-3.545 4.939v8.168c0 .634.274 1.119.823 1.457.59.338 1.161.338 1.709 0 .591-.338.865-.823.824-1.457v-8.168c.041-.359.189-.76.443-1.203.252-.422.76-.633 1.52-.633.422 0 .738.042.95.126.547.233.886.803 1.012 1.71v3.514c0 .676.275 1.161.823 1.457.591.338 1.161.338 1.71 0 .549-.338.824-.823.824-1.457v-3.514c.042-.422.168-.823.379-1.203.254-.422.781-.633 1.583-.633.422 0 .739.042.951.126.548.233.885.803 1.012 1.71v8.168c0 .634.274 1.119.824 1.457.59.338 1.16.338 1.71 0 .547-.338.822-.823.822-1.457v-8.168c.043-1.224-.337-2.321-1.14-3.293-1.012-1.267-2.406-1.9-4.179-1.9-1.393 0-2.595.445-3.609 1.33m-146.079 0c-1.014-.885-2.238-1.33-3.674-1.33-.633 0-1.224.085-1.773.254C1.35 6.97.168 8.616 0 11.233v8.168c0 .634.273 1.119.822 1.457.592.338 1.161.338 1.71 0 .591-.338.865-.823.824-1.457v-8.168c.041-.359.189-.76.442-1.203.253-.422.761-.633 1.52-.633.422 0 .739.042.95.126.548.233.887.803 1.013 1.71v3.514c0 .676.274 1.161.823 1.457.591.338 1.161.338 1.709 0 .549-.338.825-.823.825-1.457v-3.514c.042-.422.168-.823.378-1.203.254-.422.783-.633 1.584-.633.423 0 .739.042.95.126.549.233.886.803 1.013 1.71v8.168c0 .634.274 1.119.824 1.457.589.338 1.16.338 1.71 0 .547-.338.822-.823.822-1.457v-8.168c.043-1.224-.337-2.321-1.14-3.293-1.012-1.267-2.406-1.9-4.179-1.9-1.393 0-2.596.445-3.608 1.33m25.676-1.076c-.592.379-.887.886-.887 1.519v7.283c0 .506-.042.928-.127 1.266-.169.423-.548.76-1.139 1.013-.38.253-.844.401-1.392.443-.424 0-.846-.147-1.268-.443-.928-.675-1.393-1.92-1.393-3.736V7.813c0-.464-.169-.865-.507-1.203-.337-.337-.758-.506-1.266-.506-.253 0-.464.043-.633.127-.676.296-1.013.823-1.013 1.582v5.826c0 .549.042 1.076.127 1.583.506 3.167 2.11 5.109 4.812 5.825 1.35.254 2.617.085 3.799-.505 0 1.434-.19 2.321-.57 2.658-.296.296-.992.445-2.088.445h-.127c-1.604 0-2.745-.191-3.42-.571-.548-.38-1.097-.401-1.647-.063-.59.295-.886.78-.886 1.456 0 .633.274 1.118.824 1.457 1.603.971 3.376 1.329 5.319 1.076 2.025 0 3.482-.465 4.368-1.393 1.098-1.055 1.647-2.85 1.647-5.382V7.813c0-.633-.296-1.14-.886-1.519a1.553 1.553 0 0 0-.793-.222c-.274 0-.559.074-.854.222m92.954 0c-.633.296-.95.823-.95 1.583v7.219c0 1.013.254 2.005.759 2.975.17.296.359.57.57.824 1.14 1.52 2.724 2.279 4.75 2.279.759 0 1.477-.127 2.152-.379 2.364-.887 3.672-2.786 3.926-5.699V7.877c0-.675-.296-1.183-.885-1.519-.508-.338-1.057-.338-1.648 0-.591.336-.886.844-.886 1.519v7.219c0 .506-.105.992-.316 1.456l-.191.318c-.379.631-1.097.948-2.152.948a3.98 3.98 0 0 1-1.267-.19c-.423-.168-.781-.527-1.076-1.076-.212-.38-.317-.865-.317-1.456V7.877c0-.507-.169-.929-.507-1.267-.379-.337-.803-.506-1.266-.506-.253 0-.486.063-.696.19m-11.841.823c-.127.211-.19.444-.19.696v11.652c0 .633.274 1.119.824 1.455.549.339 1.118.339 1.71 0 .548-.336.822-.822.822-1.455V7.813c0-.464-.17-.865-.506-1.203-.297-.337-.697-.506-1.204-.506-.718 0-1.203.338-1.456 1.013m-14.311-.57c-2.364.845-3.651 2.723-3.862 5.636v7.282c0 .633.274 1.119.823 1.455.549.339 1.119.339 1.71 0 .506-.336.759-.822.759-1.455v-7.282c.043-.506.17-.991.38-1.457a2.94 2.94 0 0 0 .19-.316c.38-.591 1.098-.887 2.153-.887.507 0 .887.043 1.14.127.506.127.887.487 1.14 1.076.337.634.802.993 1.394 1.077.759.043 1.307-.211 1.646-.76.336-.59.336-1.203 0-1.836-1.183-2.068-2.956-3.103-5.32-3.103a5.31 5.31 0 0 0-2.153.443m33.877 20.387c-.634.296-.95.803-.95 1.52v17.793c0 .634.274 1.119.823 1.457.548.338 1.119.338 1.709 0 .549-.338.825-.823.825-1.457v-3.861l1.329-1.268 4.496 6.143c.127.169.274.296.443.381.675.421 1.309.4 1.9-.064.168-.127.316-.275.443-.444.422-.633.4-1.266-.063-1.899l-4.75-6.459 3.926-3.673c.126-.169.254-.359.381-.571.294-.674.189-1.286-.318-1.835a1.998 1.998 0 0 0-.506-.381c-.718-.295-1.351-.189-1.899.317l-5.382 5.129v-9.308c0-.464-.17-.865-.507-1.203a1.65 1.65 0 0 0-1.203-.507c-.254 0-.486.063-.697.19m-75.858.127c-.592.38-.886.907-.886 1.583v4.369h-1.014c-.676 0-1.161.296-1.456.887-.339.507-.339 1.055 0 1.646.295.592.78.865 1.456.823h1.014v6.586c0 1.436.379 2.596 1.139 3.483.929 1.14 2.322 1.646 4.179 1.519l1.204-.19c.632-.168 1.034-.57 1.203-1.204.169-.674.042-1.223-.38-1.646-.507-.506-1.098-.653-1.773-.443-.507.17-.93.191-1.267.064-.296-.042-.506-.147-.633-.316-.211-.212-.317-.633-.317-1.267v-6.586h2.09c.675.042 1.182-.231 1.519-.823.339-.591.339-1.139 0-1.646-.337-.591-.844-.887-1.519-.887h-2.09v-4.369a1.442 1.442 0 0 0-.442-1.203c-.339-.338-.76-.507-1.267-.507a2.4 2.4 0 0 0-.76.127m-19.187 6.775c-1.773 1.225-2.743 3.272-2.912 6.143v.696c.127 2.745 1.097 4.792 2.912 6.142 1.056.718 2.111 1.077 3.167 1.077 1.52.042 2.575 0 3.166-.127a6.292 6.292 0 0 0 2.28-1.077c.506-.379.717-.885.633-1.519-.084-.675-.423-1.139-1.014-1.393-.632-.211-1.202-.105-1.71.317-.379.252-1.309.379-2.786.379h-.569c-1.393-.21-2.238-1.034-2.533-2.469h6.902c.76 0 1.287-.338 1.583-1.014.084-.209.127-.422.127-.632v-.634c0-2.955-1.014-5.066-3.04-6.332a5.871 5.871 0 0 0-2.659-.632c-1.267 0-2.448.358-3.547 1.075m1.9 2.724c.423-.255.845-.38 1.267-.38h.38c.379 0 .717.085 1.013.253.676.337 1.097 1.034 1.267 2.089v.127h-5.193c.168-.929.591-1.626 1.266-2.089m45.466-3.42c-.634.337-.907.992-.823 1.963v7.788a.474.474 0 0 1-.064.191c-.169.97-.591 1.477-1.266 1.519-1.31.043-2.069-.21-2.28-.76a2.677 2.677 0 0 1-.254-.823l-.062-2.027c.041-.928-.169-1.561-.633-1.9-.423-.337-.908-.442-1.457-.315-.676.211-1.077.612-1.204 1.203v.127l-.063 2.849c0 .043-.021.085-.063.127-.169.97-.592 1.477-1.266 1.519-1.267.127-2.027-.127-2.28-.76a2.677 2.677 0 0 1-.254-.823l-.062-2.027V34.47c0-.254-.064-.485-.19-.697-.339-.591-.824-.865-1.457-.823a1.302 1.302 0 0 0-.949.254c-.591.421-.825.992-.698 1.709v8.231c0 .296.043.592.127.888.338 1.519 1.161 2.616 2.471 3.292a5.087 5.087 0 0 0 1.962.633c1.688.21 3.144-.231 4.368-1.33.971.888 2.175 1.351 3.61 1.393 1.731 0 3.104-.612 4.116-1.836.887-1.055 1.287-2.49 1.203-4.305v-7.472c-.042-.464-.274-.845-.696-1.14-.349-.255-.691-.383-1.027-.383-.274 0-.544.085-.809.256m33.052.191c-2.364.843-3.652 2.722-3.863 5.635v7.281c0 .634.274 1.119.823 1.457.549.338 1.119.338 1.71 0 .508-.338.76-.823.76-1.457v-7.281c.042-.506.169-.992.379-1.458.085-.126.149-.231.191-.316.379-.59 1.097-.887 2.153-.887.506 0 .886.044 1.139.128.507.127.888.486 1.14 1.075.337.634.803.994 1.394 1.077.76.044 1.308-.21 1.646-.759.337-.591.337-1.203 0-1.837-1.182-2.068-2.956-3.103-5.319-3.103-.76 0-1.478.149-2.153.445m-20.831.695c-1.9 1.267-2.85 3.4-2.85 6.396-.043 2.829.738 4.918 2.342 6.268 1.14.845 2.449 1.267 3.927 1.267 1.308 0 2.49-.337 3.545-1.013 1.9-1.266 2.849-3.44 2.849-6.522 0-2.871-.949-5.023-2.849-6.46-1.012-.674-2.195-1.012-3.545-1.012a5.776 5.776 0 0 0-3.419 1.076m.443 6.649v-.253c0-1.816.464-3.018 1.392-3.61.507-.337 1.034-.507 1.584-.507 2.068 0 3.102 1.373 3.102 4.117 0 2.829-1.034 4.243-3.102 4.243-1.985 0-2.976-1.33-2.976-3.99M19.597 35.23c-.885 1.097-1.329 2.385-1.329 3.861v7.22c0 .212.042.422.127.633.294.676.802 1.013 1.519 1.013.254 0 .463-.063.633-.19.676-.295 1.014-.781 1.014-1.456v-7.22c0-.168.02-.358.062-.569.296-1.35 1.161-2.026 2.597-2.026 1.689.169 2.574 1.034 2.659 2.595v7.22c0 .212.042.422.127.633.254.676.739 1.013 1.456 1.013.212 0 .444-.063.697-.19.633-.295.95-.781.95-1.456v-7.22a11.278 11.278 0 0 0-.254-1.772c-.717-2.448-2.595-3.819-5.635-4.115-2.026 0-3.567.675-4.623 2.026"/><path id="323068f8-1f96-4714-8c9c-606cc343bf6c" d="M106.663 0c-.537 0-1.051.214-1.428.596L81.98 24.06a2.425 2.425 0 0 1-3.444.001L55.278.6c-.756-.762-2.103-.761-2.858.001L1.285 52.204a4.437 4.437 0 0 0 0 6.247L26.01 83.402c.756.763 2.105.763 2.86 0l23.252-23.466a2.427 2.427 0 0 1 3.445 0l23.258 23.462a2.011 2.011 0 0 0 2.859 0l23.264-23.456a2.424 2.424 0 0 1 3.444.001l23.252 23.466a2.011 2.011 0 0 0 2.859 0l24.726-24.951a4.438 4.438 0 0 0 0-6.246L108.093.596A2.007 2.007 0 0 0 106.665 0zM97.76 24.984l-2.202-7.077a2.423 2.423 0 0 1 .593-2.428l8.79-8.869a2.427 2.427 0 0 1 3.445 0l.79.798c.3.302.514.677.623 1.087l1.68 6.357a2.425 2.425 0 0 1-.656 2.36l-9.057 8.791a2.397 2.397 0 0 1-1.681.686 2.42 2.42 0 0 1-2.325-1.705zM60.556 35.832l-11.603-4.84a2.424 2.424 0 0 1-1.472-2.548l2.436-18.892a2.426 2.426 0 0 1 .683-1.397l1.527-1.541a2.424 2.424 0 0 1 3.445 0l1.947 1.964c.31.312.529.704.633 1.131l5.694 23.31c.392 1.601-.862 3.005-2.348 3.005-.308 0-.627-.06-.941-.192zm-34.335-3.074 15.8-15.945c1.08-1.09 2.928-.188 2.731 1.334l-1.334 10.338a2.427 2.427 0 0 1-1.667 2.001l-14.16 4.51a1.435 1.435 0 0 1-.433.069c-1.114 0-1.822-1.414-.938-2.307zm93.865-1.096-3.037-11.491c-.476-1.798 1.736-3.064 3.045-1.743l10.632 10.733c1.495 1.509.466 4.075-1.657 4.131l-6.573.174-.066.001a2.426 2.426 0 0 1-2.344-1.805zm-46.043 9.796-3.314-1.382a2.42 2.42 0 0 1-1.421-1.662l-4.253-17.405c-.44-1.802 1.772-3.041 3.08-1.723l9.263 9.345c.498.501.75 1.193.696 1.897l-.7 8.883a2.426 2.426 0 0 1-2.418 2.236c-.308 0-.624-.06-.933-.189zm10.274 4.287-1.655-.691a2.422 2.422 0 0 1-1.485-2.428l.96-12.19a2.423 2.423 0 0 1 .695-1.516l6.246-6.302c1.287-1.299 3.493-.76 4.037.986l4.767 15.313a2.423 2.423 0 0 1-1.465 2.99l-10.314 3.871a2.418 2.418 0 0 1-1.786-.033zm17.258-8.509-.856-2.754a2.424 2.424 0 0 1 .626-2.461l9.886-9.595a1.462 1.462 0 0 1 2.43.675l2.406 9.105a2.424 2.424 0 0 1-1.492 2.891l-9.832 3.688a2.426 2.426 0 0 1-3.168-1.549zM46.758 50.853l-12.791-4.27a2.422 2.422 0 0 1-1.657-2.242l-.114-4.757a2.424 2.424 0 0 1 1.689-2.369l7.739-2.465a2.424 2.424 0 0 1 3.01 1.47l4.5 12.181c.475 1.286-.516 2.553-1.766 2.553-.198 0-.403-.032-.61-.101zm99.1 10.897-11.656-22.146a1.679 1.679 0 0 1 1.44-2.46l1.869-.05a2.424 2.424 0 0 1 1.787.718l15.667 15.815a2.425 2.425 0 0 1 0 3.414l-5.238 5.287a2.405 2.405 0 0 1-1.718.718 2.418 2.418 0 0 1-2.15-1.296zm-86.875-4.084-3.031-3.06a2.435 2.435 0 0 1-.553-.866L50.47 40.403c-.734-1.987 1.254-3.895 3.209-3.079l13.378 5.582a2.424 2.424 0 0 1 1.235 3.324l-5.42 10.815a2.417 2.417 0 0 1-2.171 1.339 2.405 2.405 0 0 1-1.718-.718zm61.021 8.278-2.25-2.271a2.424 2.424 0 0 1-.675-2.075l3.387-22.057a2.424 2.424 0 0 1 2.33-2.056l4.155-.111a2.426 2.426 0 0 1 2.21 1.295l5.452 10.357c.44.835.355 1.849-.218 2.6l-10.74 14.082a2.415 2.415 0 0 1-1.93.954 2.41 2.41 0 0 1-1.72-.718zM9.314 60.836l-3.766-3.801a2.425 2.425 0 0 1 0-3.414L15.813 43.26c.277-.277.614-.485.987-.604l8.273-2.634a2.425 2.425 0 0 1 3.16 2.252l.194 8.098c.021.885-.44 1.71-1.204 2.155l-14.967 8.698a2.423 2.423 0 0 1-2.941-.389zm100.666-5.009-1.88-1.897-6.027-6.222c-1.215-1.255-.745-3.344.89-3.957l9.689-3.635c1.734-.65 3.53.807 3.248 2.638l-1.8 11.735c-.197 1.279-1.287 2.059-2.41 2.059-.605 0-1.22-.226-1.71-.721zm-27.687 4.117-11.109-4.771a2.424 2.424 0 0 1-1.21-3.314l2.194-4.377a2.426 2.426 0 0 1 3.1-1.151l6.925 2.888c.75.313 1.294.98 1.448 1.778l1.316 6.801c.243 1.252-.744 2.307-1.895 2.307-.252 0-.513-.05-.769-.161zm7.908 3.766-2.348-12.133a2.423 2.423 0 0 1 1.529-2.731l4.52-1.696a2.426 2.426 0 0 1 2.594.583l5.703 5.889c.919.949.91 2.457-.02 3.395l-7.876 7.94a2.386 2.386 0 0 1-1.71.719c-1.092 0-2.154-.736-2.392-1.966zm-57.274 6.294-.39-16.231a2.426 2.426 0 0 1 3.193-2.359l10.705 3.574c1.704.569 2.218 2.73.954 4.007L35.477 71.017a1.46 1.46 0 0 1-1.048.444c-.755 0-1.48-.575-1.502-1.457zm98.424 7.391-5.04-5.086a2.424 2.424 0 0 1-.206-3.177l8.991-11.789c1.075-1.41 3.249-1.228 4.073.341l4.432 8.416a2.427 2.427 0 0 1-.423 2.837l-8.382 8.458a2.415 2.415 0 0 1-1.722.719c-.626 0-1.25-.24-1.724-.719zm-105.064.568L15.769 67.35a2.426 2.426 0 0 1 .504-3.804l8.756-5.088c1.593-.927 3.599.194 3.643 2.038l.39 16.286a1.619 1.619 0 0 1-1.623 1.662c-.418 0-.834-.16-1.152-.481zm52.245-.577L65.576 64.317a2.425 2.425 0 0 1-.444-2.794l.858-1.715a2.424 2.424 0 0 1 3.126-1.142l16.281 6.992a2.43 2.43 0 0 1 1.424 1.768l.579 2.988a2.424 2.424 0 0 1-.66 2.169l-4.764 4.803a2.414 2.414 0 0 1-1.722.718 2.414 2.414 0 0 1-1.722-.718z"/></defs><g fill-rule="evenodd"><g transform="translate(0 90.386)"><mask id="524f15bd-bbc6-4527-be0d-8cb7d4b13232" fill="#fff"><use xlink:href="#0678ebc1-51af-4f6e-9929-2c6ff4d5b279"/></mask><path fill="url(#9c67742b-ceea-43bb-a0f2-349eb6dae8cf)" d="M117.11.025c-.717.085-1.182.465-1.392 1.14-.085.169-.127.36-.127.57v.253c0 .633.274 1.119.824 1.456.549.339 1.118.339 1.71 0 .548-.337.822-.823.822-1.456v-.253c0-.507-.19-.949-.57-1.33-.303-.27-.635-.405-.993-.405-.09 0-.181.008-.274.025M65.314.279c-.591.379-.885.907-.885 1.582v4.37h-1.014c-.676 0-1.162.296-1.457.886-.337.507-.337 1.056 0 1.647.295.591.781.864 1.457.822h1.014v6.586c0 1.436.379 2.596 1.139 3.483.929 1.14 2.321 1.646 4.179 1.519l1.203-.19c.634-.168 1.034-.569 1.204-1.203.169-.675.042-1.223-.38-1.646-.507-.507-1.097-.653-1.773-.443-.507.168-.93.19-1.267.063-.296-.042-.506-.147-.633-.316-.212-.211-.316-.633-.316-1.267V9.586h2.089c.676.042 1.182-.231 1.519-.822.338-.591.338-1.14 0-1.647-.337-.59-.843-.886-1.519-.886h-2.089v-4.37a1.445 1.445 0 0 0-.444-1.203c-.338-.337-.759-.506-1.266-.506-.254 0-.507.042-.761.127m15.831 6.775c-1.774 1.224-2.744 3.272-2.913 6.142v.697c.127 2.743 1.097 4.792 2.913 6.142 1.055.718 2.11 1.076 3.166 1.076 1.52.043 2.575 0 3.166-.127a6.297 6.297 0 0 0 2.28-1.076c.506-.38.716-.886.633-1.519-.084-.676-.423-1.141-1.014-1.394-.633-.21-1.203-.105-1.71.317-.379.252-1.309.38-2.786.38h-.569c-1.393-.21-2.238-1.035-2.533-2.47h6.902c.759 0 1.287-.338 1.583-1.013.083-.21.127-.422.127-.633v-.634c0-2.954-1.014-5.065-3.04-6.332a5.874 5.874 0 0 0-2.659-.632c-1.267 0-2.449.358-3.546 1.076m1.899 2.723c.422-.254.845-.38 1.267-.38h.38c.379 0 .717.084 1.013.253.676.338 1.097 1.034 1.266 2.089v.127h-5.192c.168-.928.59-1.625 1.266-2.089M44.988 8.004a3.953 3.953 0 0 0-.823 2.469c-.084 1.435.401 2.596 1.456 3.483.971.928 2.512 1.35 4.623 1.266.97 0 1.646.211 2.027.633.168.339.168.655 0 .951-.254.506-.739.78-1.457.822-1.816.296-3.083-.02-3.799-.949a.74.74 0 0 0-.191-.127c-.548-.464-1.16-.485-1.836-.063-.717.422-.992.993-.823 1.709.253.93 1.077 1.731 2.47 2.407 1.73.716 3.714.716 5.952 0a5.38 5.38 0 0 0 1.457-.761c1.139-.885 1.687-2.004 1.646-3.355.041-.887-.212-1.71-.761-2.47-.844-1.224-1.942-1.9-3.292-2.027-.338-.084-.845-.126-1.52-.126-1.14.042-1.963-.105-2.469-.443-.211-.38-.253-.739-.127-1.077.254-.633.739-.991 1.456-1.076.042-.042.106-.063.191-.063 1.308-.169 2.258.19 2.849 1.076.422.464.949.612 1.583.443.717-.21 1.118-.633 1.202-1.267.212-1.013-.4-1.92-1.836-2.722-.886-.464-1.941-.697-3.166-.697h-.127l-.19-.002c-2.054 0-3.554.656-4.495 1.966m110.083-.634c-1.012-.885-2.237-1.33-3.672-1.33a6 6 0 0 0-1.774.254c-2.195.676-3.377 2.322-3.545 4.939v8.168c0 .634.274 1.119.823 1.457.59.338 1.161.338 1.709 0 .591-.338.865-.823.824-1.457v-8.168c.041-.359.189-.76.443-1.203.252-.422.76-.633 1.52-.633.422 0 .738.042.95.126.547.233.886.803 1.012 1.71v3.514c0 .676.275 1.161.823 1.457.591.338 1.161.338 1.71 0 .549-.338.824-.823.824-1.457v-3.514c.042-.422.168-.823.379-1.203.254-.422.781-.633 1.583-.633.422 0 .739.042.951.126.548.233.885.803 1.012 1.71v8.168c0 .634.274 1.119.824 1.457.59.338 1.16.338 1.71 0 .547-.338.822-.823.822-1.457v-8.168c.043-1.224-.337-2.321-1.14-3.293-1.012-1.267-2.406-1.9-4.179-1.9-1.393 0-2.595.445-3.609 1.33m-146.079 0c-1.014-.885-2.238-1.33-3.674-1.33-.633 0-1.224.085-1.773.254C1.35 6.97.168 8.616 0 11.233v8.168c0 .634.273 1.119.822 1.457.592.338 1.161.338 1.71 0 .591-.338.865-.823.824-1.457v-8.168c.041-.359.189-.76.442-1.203.253-.422.761-.633 1.52-.633.422 0 .739.042.95.126.548.233.887.803 1.013 1.71v3.514c0 .676.274 1.161.823 1.457.591.338 1.161.338 1.709 0 .549-.338.825-.823.825-1.457v-3.514c.042-.422.168-.823.378-1.203.254-.422.783-.633 1.584-.633.423 0 .739.042.95.126.549.233.886.803 1.013 1.71v8.168c0 .634.274 1.119.824 1.457.589.338 1.16.338 1.71 0 .547-.338.822-.823.822-1.457v-8.168c.043-1.224-.337-2.321-1.14-3.293-1.012-1.267-2.406-1.9-4.179-1.9-1.393 0-2.596.445-3.608 1.33m25.676-1.076c-.592.379-.887.886-.887 1.519v7.283c0 .506-.042.928-.127 1.266-.169.423-.548.76-1.139 1.013-.38.253-.844.401-1.392.443-.424 0-.846-.147-1.268-.443-.928-.675-1.393-1.92-1.393-3.736V7.813c0-.464-.169-.865-.507-1.203-.337-.337-.758-.506-1.266-.506-.253 0-.464.043-.633.127-.676.296-1.013.823-1.013 1.582v5.826c0 .549.042 1.076.127 1.583.506 3.167 2.11 5.109 4.812 5.825 1.35.254 2.617.085 3.799-.505 0 1.434-.19 2.321-.57 2.658-.296.296-.992.445-2.088.445h-.127c-1.604 0-2.745-.191-3.42-.571-.548-.38-1.097-.401-1.647-.063-.59.295-.886.78-.886 1.456 0 .633.274 1.118.824 1.457 1.603.971 3.376 1.329 5.319 1.076 2.025 0 3.482-.465 4.368-1.393 1.098-1.055 1.647-2.85 1.647-5.382V7.813c0-.633-.296-1.14-.886-1.519a1.553 1.553 0 0 0-.793-.222c-.274 0-.559.074-.854.222m92.954 0c-.633.296-.95.823-.95 1.583v7.219c0 1.013.254 2.005.759 2.975.17.296.359.57.57.824 1.14 1.52 2.724 2.279 4.75 2.279.759 0 1.477-.127 2.152-.379 2.364-.887 3.672-2.786 3.926-5.699V7.877c0-.675-.296-1.183-.885-1.519-.508-.338-1.057-.338-1.648 0-.591.336-.886.844-.886 1.519v7.219c0 .506-.105.992-.316 1.456l-.191.318c-.379.631-1.097.948-2.152.948a3.98 3.98 0 0 1-1.267-.19c-.423-.168-.781-.527-1.076-1.076-.212-.38-.317-.865-.317-1.456V7.877c0-.507-.169-.929-.507-1.267-.379-.337-.803-.506-1.266-.506-.253 0-.486.063-.696.19m-11.841.823c-.127.211-.19.444-.19.696v11.652c0 .633.274 1.119.824 1.455.549.339 1.118.339 1.71 0 .548-.336.822-.822.822-1.455V7.813c0-.464-.17-.865-.506-1.203-.297-.337-.697-.506-1.204-.506-.718 0-1.203.338-1.456 1.013m-14.311-.57c-2.364.845-3.651 2.723-3.862 5.636v7.282c0 .633.274 1.119.823 1.455.549.339 1.119.339 1.71 0 .506-.336.759-.822.759-1.455v-7.282c.043-.506.17-.991.38-1.457a2.94 2.94 0 0 0 .19-.316c.38-.591 1.098-.887 2.153-.887.507 0 .887.043 1.14.127.506.127.887.487 1.14 1.076.337.634.802.993 1.394 1.077.759.043 1.307-.211 1.646-.76.336-.59.336-1.203 0-1.836-1.183-2.068-2.956-3.103-5.32-3.103a5.31 5.31 0 0 0-2.153.443m33.877 20.387c-.634.296-.95.803-.95 1.52v17.793c0 .634.274 1.119.823 1.457.548.338 1.119.338 1.709 0 .549-.338.825-.823.825-1.457v-3.861l1.329-1.268 4.496 6.143c.127.169.274.296.443.381.675.421 1.309.4 1.9-.064.168-.127.316-.275.443-.444.422-.633.4-1.266-.063-1.899l-4.75-6.459 3.926-3.673c.126-.169.254-.359.381-.571.294-.674.189-1.286-.318-1.835a1.998 1.998 0 0 0-.506-.381c-.718-.295-1.351-.189-1.899.317l-5.382 5.129v-9.308c0-.464-.17-.865-.507-1.203a1.65 1.65 0 0 0-1.203-.507c-.254 0-.486.063-.697.19m-75.858.127c-.592.38-.886.907-.886 1.583v4.369h-1.014c-.676 0-1.161.296-1.456.887-.339.507-.339 1.055 0 1.646.295.592.78.865 1.456.823h1.014v6.586c0 1.436.379 2.596 1.139 3.483.929 1.14 2.322 1.646 4.179 1.519l1.204-.19c.632-.168 1.034-.57 1.203-1.204.169-.674.042-1.223-.38-1.646-.507-.506-1.098-.653-1.773-.443-.507.17-.93.191-1.267.064-.296-.042-.506-.147-.633-.316-.211-.212-.317-.633-.317-1.267v-6.586h2.09c.675.042 1.182-.231 1.519-.823.339-.591.339-1.139 0-1.646-.337-.591-.844-.887-1.519-.887h-2.09v-4.369a1.442 1.442 0 0 0-.442-1.203c-.339-.338-.76-.507-1.267-.507a2.4 2.4 0 0 0-.76.127m-19.187 6.775c-1.773 1.225-2.743 3.272-2.912 6.143v.696c.127 2.745 1.097 4.792 2.912 6.142 1.056.718 2.111 1.077 3.167 1.077 1.52.042 2.575 0 3.166-.127a6.292 6.292 0 0 0 2.28-1.077c.506-.379.717-.885.633-1.519-.084-.675-.423-1.139-1.014-1.393-.632-.211-1.202-.105-1.71.317-.379.252-1.309.379-2.786.379h-.569c-1.393-.21-2.238-1.034-2.533-2.469h6.902c.76 0 1.287-.338 1.583-1.014.084-.209.127-.422.127-.632v-.634c0-2.955-1.014-5.066-3.04-6.332a5.871 5.871 0 0 0-2.659-.632c-1.267 0-2.448.358-3.547 1.075m1.9 2.724c.423-.255.845-.38 1.267-.38h.38c.379 0 .717.085 1.013.253.676.337 1.097 1.034 1.267 2.089v.127h-5.193c.168-.929.591-1.626 1.266-2.089m45.466-3.42c-.634.337-.907.992-.823 1.963v7.788a.474.474 0 0 1-.064.191c-.169.97-.591 1.477-1.266 1.519-1.31.043-2.069-.21-2.28-.76a2.677 2.677 0 0 1-.254-.823l-.062-2.027c.041-.928-.169-1.561-.633-1.9-.423-.337-.908-.442-1.457-.315-.676.211-1.077.612-1.204 1.203v.127l-.063 2.849c0 .043-.021.085-.063.127-.169.97-.592 1.477-1.266 1.519-1.267.127-2.027-.127-2.28-.76a2.677 2.677 0 0 1-.254-.823l-.062-2.027V34.47c0-.254-.064-.485-.19-.697-.339-.591-.824-.865-1.457-.823a1.302 1.302 0 0 0-.949.254c-.591.421-.825.992-.698 1.709v8.231c0 .296.043.592.127.888.338 1.519 1.161 2.616 2.471 3.292a5.087 5.087 0 0 0 1.962.633c1.688.21 3.144-.231 4.368-1.33.971.888 2.175 1.351 3.61 1.393 1.731 0 3.104-.612 4.116-1.836.887-1.055 1.287-2.49 1.203-4.305v-7.472c-.042-.464-.274-.845-.696-1.14-.349-.255-.691-.383-1.027-.383-.274 0-.544.085-.809.256m33.052.191c-2.364.843-3.652 2.722-3.863 5.635v7.281c0 .634.274 1.119.823 1.457.549.338 1.119.338 1.71 0 .508-.338.76-.823.76-1.457v-7.281c.042-.506.169-.992.379-1.458.085-.126.149-.231.191-.316.379-.59 1.097-.887 2.153-.887.506 0 .886.044 1.139.128.507.127.888.486 1.14 1.075.337.634.803.994 1.394 1.077.76.044 1.308-.21 1.646-.759.337-.591.337-1.203 0-1.837-1.182-2.068-2.956-3.103-5.319-3.103-.76 0-1.478.149-2.153.445m-20.831.695c-1.9 1.267-2.85 3.4-2.85 6.396-.043 2.829.738 4.918 2.342 6.268 1.14.845 2.449 1.267 3.927 1.267 1.308 0 2.49-.337 3.545-1.013 1.9-1.266 2.849-3.44 2.849-6.522 0-2.871-.949-5.023-2.849-6.46-1.012-.674-2.195-1.012-3.545-1.012a5.776 5.776 0 0 0-3.419 1.076m.443 6.649v-.253c0-1.816.464-3.018 1.392-3.61.507-.337 1.034-.507 1.584-.507 2.068 0 3.102 1.373 3.102 4.117 0 2.829-1.034 4.243-3.102 4.243-1.985 0-2.976-1.33-2.976-3.99M19.597 35.23c-.885 1.097-1.329 2.385-1.329 3.861v7.22c0 .212.042.422.127.633.294.676.802 1.013 1.519 1.013.254 0 .463-.063.633-.19.676-.295 1.014-.781 1.014-1.456v-7.22c0-.168.02-.358.062-.569.296-1.35 1.161-2.026 2.597-2.026 1.689.169 2.574 1.034 2.659 2.595v7.22c0 .212.042.422.127.633.254.676.739 1.013 1.456 1.013.212 0 .444-.063.697-.19.633-.295.95-.781.95-1.456v-7.22a11.278 11.278 0 0 0-.254-1.772c-.717-2.448-2.595-3.819-5.635-4.115-2.026 0-3.567.675-4.623 2.026" mask="url(#524f15bd-bbc6-4527-be0d-8cb7d4b13232)"/></g><g transform="translate(1.522)"><mask id="0c9c38aa-af14-4262-b226-ae93bba4a2b7" fill="#fff"><use xlink:href="#323068f8-1f96-4714-8c9c-606cc343bf6c"/></mask><path fill="url(#f0180259-85eb-4057-a725-d780503061ba)" d="M106.663 0c-.537 0-1.051.214-1.428.596L81.98 24.06a2.425 2.425 0 0 1-3.444.001L55.278.6c-.756-.762-2.103-.761-2.858.001L1.285 52.204a4.437 4.437 0 0 0 0 6.247L26.01 83.402c.756.763 2.105.763 2.86 0l23.252-23.466a2.427 2.427 0 0 1 3.445 0l23.258 23.462a2.011 2.011 0 0 0 2.859 0l23.264-23.456a2.424 2.424 0 0 1 3.444.001l23.252 23.466a2.011 2.011 0 0 0 2.859 0l24.726-24.951a4.438 4.438 0 0 0 0-6.246L108.093.596A2.007 2.007 0 0 0 106.665 0zM97.76 24.984l-2.202-7.077a2.423 2.423 0 0 1 .593-2.428l8.79-8.869a2.427 2.427 0 0 1 3.445 0l.79.798c.3.302.514.677.623 1.087l1.68 6.357a2.425 2.425 0 0 1-.656 2.36l-9.057 8.791a2.397 2.397 0 0 1-1.681.686 2.42 2.42 0 0 1-2.325-1.705zM60.556 35.832l-11.603-4.84a2.424 2.424 0 0 1-1.472-2.548l2.436-18.892a2.426 2.426 0 0 1 .683-1.397l1.527-1.541a2.424 2.424 0 0 1 3.445 0l1.947 1.964c.31.312.529.704.633 1.131l5.694 23.31c.392 1.601-.862 3.005-2.348 3.005-.308 0-.627-.06-.941-.192zm-34.335-3.074 15.8-15.945c1.08-1.09 2.928-.188 2.731 1.334l-1.334 10.338a2.427 2.427 0 0 1-1.667 2.001l-14.16 4.51a1.435 1.435 0 0 1-.433.069c-1.114 0-1.822-1.414-.938-2.307zm93.865-1.096-3.037-11.491c-.476-1.798 1.736-3.064 3.045-1.743l10.632 10.733c1.495 1.509.466 4.075-1.657 4.131l-6.573.174-.066.001a2.426 2.426 0 0 1-2.344-1.805zm-46.043 9.796-3.314-1.382a2.42 2.42 0 0 1-1.421-1.662l-4.253-17.405c-.44-1.802 1.772-3.041 3.08-1.723l9.263 9.345c.498.501.75 1.193.696 1.897l-.7 8.883a2.426 2.426 0 0 1-2.418 2.236c-.308 0-.624-.06-.933-.189zm10.274 4.287-1.655-.691a2.422 2.422 0 0 1-1.485-2.428l.96-12.19a2.423 2.423 0 0 1 .695-1.516l6.246-6.302c1.287-1.299 3.493-.76 4.037.986l4.767 15.313a2.423 2.423 0 0 1-1.465 2.99l-10.314 3.871a2.418 2.418 0 0 1-1.786-.033zm17.258-8.509-.856-2.754a2.424 2.424 0 0 1 .626-2.461l9.886-9.595a1.462 1.462 0 0 1 2.43.675l2.406 9.105a2.424 2.424 0 0 1-1.492 2.891l-9.832 3.688a2.426 2.426 0 0 1-3.168-1.549zM46.758 50.853l-12.791-4.27a2.422 2.422 0 0 1-1.657-2.242l-.114-4.757a2.424 2.424 0 0 1 1.689-2.369l7.739-2.465a2.424 2.424 0 0 1 3.01 1.47l4.5 12.181c.475 1.286-.516 2.553-1.766 2.553-.198 0-.403-.032-.61-.101zm99.1 10.897-11.656-22.146a1.679 1.679 0 0 1 1.44-2.46l1.869-.05a2.424 2.424 0 0 1 1.787.718l15.667 15.815a2.425 2.425 0 0 1 0 3.414l-5.238 5.287a2.405 2.405 0 0 1-1.718.718 2.418 2.418 0 0 1-2.15-1.296zm-86.875-4.084-3.031-3.06a2.435 2.435 0 0 1-.553-.866L50.47 40.403c-.734-1.987 1.254-3.895 3.209-3.079l13.378 5.582a2.424 2.424 0 0 1 1.235 3.324l-5.42 10.815a2.417 2.417 0 0 1-2.171 1.339 2.405 2.405 0 0 1-1.718-.718zm61.021 8.278-2.25-2.271a2.424 2.424 0 0 1-.675-2.075l3.387-22.057a2.424 2.424 0 0 1 2.33-2.056l4.155-.111a2.426 2.426 0 0 1 2.21 1.295l5.452 10.357c.44.835.355 1.849-.218 2.6l-10.74 14.082a2.415 2.415 0 0 1-1.93.954 2.41 2.41 0 0 1-1.72-.718zM9.314 60.836l-3.766-3.801a2.425 2.425 0 0 1 0-3.414L15.813 43.26c.277-.277.614-.485.987-.604l8.273-2.634a2.425 2.425 0 0 1 3.16 2.252l.194 8.098c.021.885-.44 1.71-1.204 2.155l-14.967 8.698a2.423 2.423 0 0 1-2.941-.389zm100.666-5.009-1.88-1.897-6.027-6.222c-1.215-1.255-.745-3.344.89-3.957l9.689-3.635c1.734-.65 3.53.807 3.248 2.638l-1.8 11.735c-.197 1.279-1.287 2.059-2.41 2.059-.605 0-1.22-.226-1.71-.721zm-27.687 4.117-11.109-4.771a2.424 2.424 0 0 1-1.21-3.314l2.194-4.377a2.426 2.426 0 0 1 3.1-1.151l6.925 2.888c.75.313 1.294.98 1.448 1.778l1.316 6.801c.243 1.252-.744 2.307-1.895 2.307-.252 0-.513-.05-.769-.161zm7.908 3.766-2.348-12.133a2.423 2.423 0 0 1 1.529-2.731l4.52-1.696a2.426 2.426 0 0 1 2.594.583l5.703 5.889c.919.949.91 2.457-.02 3.395l-7.876 7.94a2.386 2.386 0 0 1-1.71.719c-1.092 0-2.154-.736-2.392-1.966zm-57.274 6.294-.39-16.231a2.426 2.426 0 0 1 3.193-2.359l10.705 3.574c1.704.569 2.218 2.73.954 4.007L35.477 71.017a1.46 1.46 0 0 1-1.048.444c-.755 0-1.48-.575-1.502-1.457zm98.424 7.391-5.04-5.086a2.424 2.424 0 0 1-.206-3.177l8.991-11.789c1.075-1.41 3.249-1.228 4.073.341l4.432 8.416a2.427 2.427 0 0 1-.423 2.837l-8.382 8.458a2.415 2.415 0 0 1-1.722.719c-.626 0-1.25-.24-1.724-.719zm-105.064.568L15.769 67.35a2.426 2.426 0 0 1 .504-3.804l8.756-5.088c1.593-.927 3.599.194 3.643 2.038l.39 16.286a1.619 1.619 0 0 1-1.623 1.662c-.418 0-.834-.16-1.152-.481zm52.245-.577L65.576 64.317a2.425 2.425 0 0 1-.444-2.794l.858-1.715a2.424 2.424 0 0 1 3.126-1.142l16.281 6.992a2.43 2.43 0 0 1 1.424 1.768l.579 2.988a2.424 2.424 0 0 1-.66 2.169l-4.764 4.803a2.414 2.414 0 0 1-1.722.718 2.414 2.414 0 0 1-1.722-.718z" mask="url(#0c9c38aa-af14-4262-b226-ae93bba4a2b7)"/></g></g></g></svg>